<?xml version="1.0" standalone="no"?>
<!DOCTYPE svg PUBLIC "-//W3C//DTD SVG 20010904//EN"
 "http://www.w3.org/TR/2001/REC-SVG-20010904/DTD/svg10.dtd">
<svg version="1.0" xmlns="http://www.w3.org/2000/svg"
 width="1920.000000pt" height="404.000000pt" viewBox="0 0 1920.000000 404.000000"
 preserveAspectRatio="xMidYMid meet">

<g transform="translate(0.000000,404.000000) scale(0.100000,-0.100000)"
fill="#000000" stroke="none">
<path d="M12194 3550 c-72 -15 -132 -50 -186 -109 -68 -73 -92 -139 -92 -243
0 -65 5 -86 32 -141 56 -114 130 -172 252 -198 154 -33 320 52 388 199 34 73
38 200 9 272 -39 96 -116 173 -206 205 -54 19 -146 26 -197 15z"/>
<path d="M2237 3060 c-58 -12 -125 -37 -195 -71 -93 -45 -117 -63 -197 -143
-73 -73 -100 -109 -138 -182 -77 -151 -92 -219 -92 -424 0 -153 3 -185 23
-254 81 -282 283 -480 567 -557 114 -32 344 -32 460 0 167 44 318 141 410 263
47 62 117 196 130 251 l7 27 -219 0 -220 0 -32 -49 c-121 -188 -429 -212 -594
-47 -51 51 -99 140 -118 216 -31 124 -12 307 43 414 31 61 111 139 175 172 55
27 65 29 178 29 101 0 127 -3 166 -21 56 -26 120 -82 160 -141 l30 -43 215 0
216 0 -7 33 c-12 57 -92 210 -142 270 -188 225 -507 324 -826 257z"/>
<path d="M9940 2235 l0 -825 198 2 197 3 5 485 5 485 182 -485 181 -485 163 0
162 0 181 486 181 487 3 -489 2 -489 200 0 200 0 0 825 0 825 -234 0 -234 0
-50 -122 c-28 -68 -130 -322 -227 -566 -98 -244 -181 -440 -186 -435 -4 4
-108 258 -232 563 l-225 555 -236 3 -236 2 0 -825z"/>
<path d="M3811 2724 c-161 -43 -283 -148 -361 -309 -52 -109 -70 -197 -70
-347 0 -292 116 -510 327 -615 203 -102 433 -71 589 78 l64 62 0 -92 0 -91
198 2 197 3 3 653 2 652 -200 0 -200 0 0 -85 c0 -47 -2 -85 -5 -85 -2 0 -25
22 -50 49 -52 56 -136 104 -220 126 -73 19 -202 18 -274 -1z m385 -362 c117
-60 181 -211 154 -362 -20 -113 -70 -184 -164 -232 -62 -33 -174 -31 -241 4
-116 60 -176 185 -161 338 11 126 82 226 189 267 49 19 174 11 223 -15z"/>
<path d="M5763 2725 c-89 -20 -158 -60 -235 -136 -36 -37 -69 -65 -72 -61 -3
3 -6 47 -6 99 l0 93 -195 0 -195 0 0 -655 0 -655 194 0 194 0 4 348 c6 387 11
422 70 479 53 51 100 66 228 72 l115 6 0 210 c0 241 9 224 -102 200z"/>
<path d="M6475 2726 c-231 -53 -386 -191 -461 -411 -37 -108 -45 -303 -19
-421 45 -202 157 -348 330 -430 105 -50 184 -67 310 -67 198 0 339 55 466 182
78 78 149 196 149 247 l0 24 -203 0 -203 0 -38 -46 c-49 -59 -103 -84 -181
-84 -67 0 -144 30 -182 71 -25 28 -58 99 -67 147 l-5 32 453 0 454 0 6 31 c16
81 0 226 -35 333 -59 176 -201 313 -383 372 -100 33 -294 42 -391 20z m281
-334 c52 -27 100 -81 115 -131 22 -73 29 -71 -246 -71 l-245 0 0 23 c0 38 48
123 86 152 19 14 51 33 72 40 53 21 166 14 218 -13z"/>
<path d="M7915 2725 c-128 -28 -217 -75 -308 -164 -72 -69 -117 -142 -154
-246 -26 -75 -28 -90 -27 -245 0 -153 2 -171 27 -247 33 -97 108 -215 175
-273 58 -50 186 -114 272 -137 87 -22 263 -22 350 1 174 44 329 166 403 315
20 40 37 84 37 97 l0 24 -203 0 -203 0 -38 -46 c-54 -64 -109 -87 -196 -82
-53 3 -78 10 -116 34 -59 36 -104 105 -111 169 l-6 45 451 0 450 0 6 23 c3 12
6 50 6 85 1 334 -189 584 -493 646 -91 19 -239 20 -322 1z m240 -316 c82 -21
164 -116 165 -191 l0 -28 -250 0 -250 0 0 23 c1 36 35 101 75 140 62 60 159
81 260 56z"/>
<path d="M9655 2728 c-88 -17 -173 -65 -247 -140 l-68 -69 0 101 0 100 -200 0
-200 0 0 -655 0 -655 198 2 197 3 5 365 c5 354 6 366 27 407 24 45 69 84 118
104 17 6 82 14 145 18 l115 6 0 210 c0 239 7 222 -90 203z"/>
<path d="M15355 2734 c-111 -17 -200 -59 -277 -132 l-48 -45 0 82 0 81 -200 0
-200 0 0 -655 0 -655 199 0 200 0 3 408 3 407 31 55 c44 78 101 112 197 118
61 4 82 1 122 -17 61 -27 80 -44 114 -101 l26 -45 5 -410 5 -410 198 -3 197
-2 0 430 c0 360 -3 443 -16 503 -42 186 -148 311 -311 366 -60 20 -191 33
-248 25z"/>
<path d="M16573 2726 c-201 -49 -363 -223 -420 -451 -27 -108 -24 -326 6 -430
59 -209 190 -358 372 -422 61 -21 92 -26 174 -26 158 0 276 49 365 151 l40 45
0 -130 c0 -144 -13 -203 -55 -259 -102 -134 -380 -117 -460 29 l-20 37 -198 0
-198 0 7 -37 c37 -208 191 -368 414 -433 103 -30 333 -39 440 -16 208 44 361
179 434 386 l31 85 3 733 3 732 -201 0 -200 0 0 -85 0 -86 -52 53 c-94 94
-208 139 -353 137 -44 0 -104 -6 -132 -13z m349 -352 c64 -21 122 -75 154
-141 37 -76 45 -203 18 -290 -26 -82 -107 -165 -183 -187 -104 -31 -190 -12
-269 59 -75 68 -97 125 -97 255 0 95 3 111 28 162 64 131 210 190 349 142z"/>
<path d="M12080 2065 l0 -655 198 2 197 3 3 653 2 652 -200 0 -200 0 0 -655z"/>
<path d="M12700 2555 l0 -165 265 0 c146 0 265 -3 265 -6 0 -3 -119 -150 -265
-327 l-265 -321 0 -163 0 -163 505 0 505 0 0 165 0 165 -280 0 c-154 0 -280 3
-280 8 1 4 124 153 275 332 l275 325 0 158 0 157 -500 0 -500 0 0 -165z"/>
<path d="M13940 2065 l0 -655 200 0 200 0 0 655 0 655 -200 0 -200 0 0 -655z"/>
</g>
</svg>
